<svg width="108" height="33" viewBox="0 0 108 33" fill="none" xmlns="http://www.w3.org/2000/svg">
<line x1="1.80867" y1="-1.80867" x2="16.1618" y2="-1.80867" transform="matrix(-0.707107 -0.707107 -0.707107 0.707107 12.707 18.5625)" stroke="#040B52" stroke-width="3.61733" stroke-linecap="round"/>
<path d="M12.5684 16.7393L6.73858 22.569" stroke="#040B52" stroke-width="3.61733" stroke-linecap="round"/>
<circle r="2.03789" transform="matrix(1 0 0 -1 12.6902 16.3859)" fill="#0B1DD5"/>
<line x1="1.80866" y1="-1.80866" x2="16.1618" y2="-1.80866" transform="matrix(-0.707107 0.707107 0.707107 0.707107 18.3105 20.2227)" stroke="#040B52" stroke-width="3.61733" stroke-linecap="round"/>
<line x1="1.80866" y1="-1.80866" x2="11.1597" y2="-1.80866" transform="matrix(0.707107 0.707107 0.707107 -0.707107 16.3047 17.3906)" stroke="#040B52" stroke-width="3.61733" stroke-linecap="round"/>
<circle r="2.04222" transform="matrix(0 -1 -1 0 16.1726 20.0857)" fill="#0B1DD5"/>
<line x1="1.80867" y1="-1.80867" x2="16.1618" y2="-1.80867" transform="matrix(0.707171 -0.707043 -0.707042 -0.707171 14.2734 12.708)" stroke="#040B52" stroke-width="3.61733" stroke-linecap="round"/>
<line x1="1.80867" y1="-1.80867" x2="11.1597" y2="-1.80867" transform="matrix(-0.707043 -0.707171 -0.707171 0.707042 16.125 15.4756)" stroke="#040B52" stroke-width="3.61733" stroke-linecap="round"/>
<circle r="2.03789" transform="matrix(-9.08269e-05 1 1 9.08269e-05 16.3854 12.9072)" fill="#0B1DD5"/>
<path d="M36.0466 24.5631C39.1466 24.5631 41.235 23.0539 41.7244 20.7289L38.5102 20.5168C38.1595 21.4713 37.2621 21.9689 36.1037 21.9689C34.366 21.9689 33.2647 20.8186 33.2647 18.9505V18.9423H41.7979V17.9879C41.7979 13.7294 39.22 11.6247 35.9079 11.6247C32.2205 11.6247 29.8303 14.2434 29.8303 18.1102C29.8303 22.0831 32.1879 24.5631 36.0466 24.5631ZM33.2647 16.7886C33.3382 15.361 34.4232 14.2189 35.965 14.2189C37.4742 14.2189 38.5184 15.2958 38.5266 16.7886H33.2647ZM53.8023 15.361C53.4923 13.0523 51.6323 11.6247 48.4671 11.6247C45.261 11.6247 43.1482 13.1094 43.1563 15.5242C43.1482 17.4005 44.331 18.616 46.7784 19.1055L48.9484 19.5378C50.0416 19.7581 50.5392 20.1578 50.5555 20.786C50.5392 21.5284 49.7316 22.0586 48.516 22.0586C47.276 22.0586 46.4521 21.5284 46.24 20.5086L42.8218 20.6881C43.1482 23.0865 45.1876 24.5631 48.5079 24.5631C51.7547 24.5631 54.0797 22.907 54.0879 20.4352C54.0797 18.6242 52.8968 17.5392 50.4658 17.0415L48.1979 16.5847C47.0313 16.3318 46.5989 15.9321 46.6071 15.3284C46.5989 14.5779 47.4474 14.0884 48.5242 14.0884C49.7316 14.0884 50.4495 14.7492 50.6208 15.5568L53.8023 15.361ZM61.2486 24.5631C64.5852 24.5631 66.6817 22.6052 66.8449 19.7255H63.5654C63.3615 21.0634 62.4804 21.8139 61.2894 21.8139C59.666 21.8139 58.6136 20.4515 58.6136 18.0531C58.6136 15.6873 59.6741 14.3331 61.2894 14.3331C62.562 14.3331 63.3778 15.1734 63.5654 16.4215H66.8449C66.6981 13.5255 64.5036 11.6247 61.2323 11.6247C57.4307 11.6247 55.0812 14.2597 55.0812 18.1021C55.0812 21.9118 57.3899 24.5631 61.2486 24.5631ZM68.3808 24.3184H71.856V17.2292C71.856 15.6873 72.9818 14.6268 74.5155 14.6268C74.9968 14.6268 75.6576 14.7084 75.9839 14.8144V11.7308C75.6739 11.6573 75.2416 11.6084 74.8908 11.6084C73.4876 11.6084 72.3374 12.4242 71.8805 13.9742H71.75V11.7879H68.3808V24.3184ZM82.1698 24.5631C85.9714 24.5631 88.3371 21.9607 88.3371 18.1021C88.3371 14.2189 85.9714 11.6247 82.1698 11.6247C78.3682 11.6247 76.0024 14.2189 76.0024 18.1021C76.0024 21.9607 78.3682 24.5631 82.1698 24.5631ZM82.1861 21.871C80.4322 21.871 79.5348 20.2639 79.5348 18.0776C79.5348 15.8913 80.4322 14.276 82.1861 14.276C83.9074 14.276 84.8048 15.8913 84.8048 18.0776C84.8048 20.2639 83.9074 21.871 82.1861 21.871ZM92.0655 24.3184H95.7365L97.8902 16.4379H98.0452L100.199 24.3184H103.878L107.28 11.7879H103.772L101.863 20.1578H101.757L99.7012 11.7879H96.2504L94.2273 20.2068H94.1131L92.1715 11.7879H88.6555L92.0655 24.3184Z" fill="#040B52"/>
</svg>
