<svg width="16" height="16" viewBox="0 0 16 16" fill="none" xmlns="http://www.w3.org/2000/svg">
<path d="M15.4073 13.372L12.0893 10.054C12.7327 9.04067 13.1047 7.83933 13.1047 6.55333C13.1047 2.94 10.1653 0 6.552 0C2.93867 0 0 2.94 0 6.55333C0 10.1667 2.93867 13.1067 6.55267 13.1067C7.77533 13.1067 8.92067 12.77 9.90067 12.1847L13.248 15.532C14.6773 16.9593 16.8373 14.8013 15.4073 13.372ZM2.03133 6.55333C2.03133 4.06067 4.06 2.032 6.55267 2.032C9.04533 2.032 11.074 4.06 11.074 6.55333C11.074 9.04667 9.04533 11.0747 6.55267 11.0747C4.06 11.0747 2.03133 9.046 2.03133 6.55333ZM3.37133 5.37733C4.694 2.31133 9.14733 2.66667 9.986 5.87667C8.29667 3.894 5.324 3.68067 3.37133 5.37733Z" fill="#000425" fill-opacity="0.3"/>
</svg>
